<svg width="32" height="19" viewBox="0 0 32 19" fill="none" xmlns="http://www.w3.org/2000/svg">
<path d="M0.00672275 11.3988C0.158068 10.9341 0.272422 10.4525 0.464126 10.0048C0.797347 9.21794 1.34265 8.54109 2.03811 8.05108C2.95963 7.40211 3.87892 6.74975 4.79596 6.09399C4.92296 6.00492 5.03628 5.8975 5.13228 5.77516C6.06053 4.53375 6.97195 3.28216 7.91029 2.04414C8.36434 1.40937 8.96244 0.893403 9.6546 0.53936C10.3468 0.185318 11.1129 0.00347805 11.889 0.00904489C18.0739 -0.0113061 24.2589 0.00904489 30.4472 0.00904489C31.1838 0.00904489 31.6277 0.49068 31.5134 1.1487C31.4528 1.48788 31.2342 1.72531 30.7634 1.91186C30.8508 2.49186 30.9383 3.07865 31.0291 3.66544C31.3497 5.70054 31.6714 7.74129 31.9943 9.7877C32.001 9.89273 32.001 9.99811 31.9943 10.1031C31.9943 11.6046 31.9943 13.1072 31.9943 14.6109C32.01 14.7555 31.9931 14.9018 31.9449 15.0389C31.8968 15.176 31.8185 15.3004 31.716 15.4028C31.6135 15.5052 31.4895 15.5829 31.3531 15.6302C31.2166 15.6775 31.0714 15.6931 30.9282 15.6759H30.1277C30.1231 15.0298 29.9747 14.393 29.6936 13.8125C29.4124 13.2319 29.0057 12.7223 28.5033 12.3214C27.7322 11.6957 26.7649 11.3685 25.7757 11.3988C24.672 11.4318 23.6233 11.8927 22.8478 12.6855C22.0723 13.4783 21.6297 14.5421 21.6121 15.6556H10.3823C10.3593 14.507 9.88656 13.4143 9.06736 12.6161C8.24816 11.8179 7.14904 11.3791 6.01007 11.3954C4.90797 11.4351 3.86286 11.8992 3.08965 12.6923C2.31645 13.4853 1.87394 14.547 1.85314 15.659C1.14686 15.6759 0.393497 15.8489 0 14.9806L0.00672275 11.3988ZM6.85088 6.65025C8.70065 6.65025 10.4832 6.65025 12.2623 6.65025C12.5487 6.63793 12.8223 6.52676 13.0372 6.33536C13.2521 6.14396 13.3953 5.88393 13.4428 5.59879C13.5571 4.88311 13.6513 4.16743 13.7522 3.44836C13.8228 2.95315 13.8901 2.45795 13.9675 1.91525C13.241 1.91525 12.5583 1.91525 11.8755 1.91525C11.3995 1.91644 10.9304 2.02957 10.5054 2.24566C10.0803 2.46175 9.71113 2.77485 9.42711 3.16006C8.61993 4.21492 7.8363 5.29013 7.04258 6.35516C6.99214 6.44335 6.94168 6.52815 6.85088 6.66382V6.65025Z" fill="#5AEEB9"/>
<path d="M6.09415 18.9999C5.65855 18.9946 5.22828 18.9026 4.82808 18.729C4.42787 18.5555 4.06562 18.3039 3.76215 17.9887C3.45867 17.6735 3.21996 17.3009 3.05973 16.8923C2.89949 16.4838 2.8209 16.0474 2.82846 15.6081C2.85136 14.7321 3.21462 13.9002 3.83996 13.2918C4.46529 12.6833 5.30262 12.347 6.17151 12.3553C7.04071 12.3705 7.86902 12.7303 8.47709 13.3569C9.08516 13.9834 9.42405 14.8263 9.42038 15.7031C9.4115 16.5847 9.05639 17.4268 8.43288 18.0448C7.80938 18.6628 6.96835 19.0062 6.09415 18.9999ZM7.53025 15.6691C7.52847 15.2925 7.37886 14.9319 7.11415 14.6662C6.84944 14.4005 6.49116 14.2513 6.11769 14.2513C5.74358 14.2567 5.38654 14.4101 5.12356 14.6785C4.86057 14.9469 4.71272 15.3088 4.71187 15.6861C4.71542 16.0627 4.86673 16.4226 5.1327 16.6871C5.39868 16.9515 5.75767 17.0989 6.13115 17.0971C6.31643 17.0976 6.49995 17.0608 6.67101 16.989C6.84207 16.9172 6.99724 16.8118 7.12747 16.6789C7.2577 16.5459 7.36039 16.3882 7.42954 16.2148C7.49869 16.0415 7.53293 15.856 7.53025 15.6691Z" fill="#5AEEB9"/>
<path d="M22.5975 15.6488C22.6023 15.2093 22.6933 14.7752 22.8652 14.3714C23.0371 13.9676 23.2866 13.6021 23.5992 13.2959C23.9118 12.9898 24.2815 12.7491 24.6868 12.5876C25.092 12.4262 25.525 12.3472 25.9607 12.3553C26.829 12.3775 27.6539 12.7431 28.2573 13.3733C28.8607 14.0034 29.1942 14.8475 29.186 15.7234C29.171 16.5994 28.8147 17.4343 28.1941 18.0474C27.5736 18.6606 26.7386 19.0027 25.8699 18.9999C24.9957 18.9919 24.1604 18.6346 23.547 18.0064C22.9335 17.3782 22.5921 16.5304 22.5975 15.6488ZM25.88 17.0971C26.2538 17.0998 26.6135 16.9534 26.8806 16.6897C27.1478 16.426 27.3007 16.0665 27.306 15.6895C27.3052 15.3124 27.1579 14.9507 26.8957 14.6818C26.6335 14.413 26.2773 14.2585 25.9035 14.2514C25.5295 14.2496 25.17 14.3974 24.9039 14.6626C24.6378 14.9278 24.4869 15.2885 24.4842 15.6658C24.4816 15.853 24.5159 16.039 24.5852 16.2128C24.6545 16.3865 24.7575 16.5446 24.888 16.6779C25.0185 16.8111 25.1741 16.9168 25.3456 16.9888C25.517 17.0608 25.701 17.0976 25.8867 17.0971H25.88Z" fill="#5AEEB9"/>
</svg>
