<svg width="120" height="120" viewBox="0 0 120 120" fill="none" xmlns="http://www.w3.org/2000/svg">
<path d="M32.7923 2.92937e-05H0V119.792H32.7923V2.92937e-05Z" fill="#E8F0F9"/>
<path d="M32.7923 119.792L95.4884 119.792V0L32.7923 2.92937e-05V119.792Z" fill="#135CAF"/>
<path d="M24.7652 6.14337H7.89237C6.8749 6.14337 6.05007 6.96493 6.05007 7.97838C6.05007 8.99182 6.8749 9.81338 7.89237 9.81338H24.7652C25.7826 9.81338 26.6075 8.99182 26.6075 7.97838C26.6075 6.96493 25.7826 6.14337 24.7652 6.14337Z" fill="#135CAF"/>
<path d="M24.7652 14.0977H7.89237C6.8749 14.0977 6.05007 14.9193 6.05007 15.9327C6.05007 16.9462 6.8749 17.7677 7.89237 17.7677H24.7652C25.7826 17.7677 26.6075 16.9462 26.6075 15.9327C26.6075 14.9193 25.7826 14.0977 24.7652 14.0977Z" fill="#135CAF"/>
<path d="M24.7652 22.0489H7.89237C6.8749 22.0489 6.05007 22.8704 6.05007 23.8839C6.05007 24.8973 6.8749 25.7189 7.89237 25.7189H24.7652C25.7826 25.7189 26.6075 24.8973 26.6075 23.8839C26.6075 22.8704 25.7826 22.0489 24.7652 22.0489Z" fill="#135CAF"/>
<path d="M24.7652 30H7.89237C6.8749 30 6.05007 30.8216 6.05007 31.835C6.05007 32.8485 6.8749 33.67 7.89237 33.67H24.7652C25.7826 33.67 26.6075 32.8485 26.6075 31.835C26.6075 30.8216 25.7826 30 24.7652 30Z" fill="#135CAF"/>
<path d="M20.8527 70.0693H11.8049C9.55897 70.0693 7.73831 71.8836 7.73831 74.1217C7.73831 76.3598 9.55897 78.1741 11.8049 78.1741H20.8527C23.0986 78.1741 24.9192 76.3598 24.9192 74.1217C24.9192 71.8836 23.0986 70.0693 20.8527 70.0693Z" fill="#F4B60E"/>
<path d="M20.8527 87.2003H11.8049C9.55897 87.2003 7.73831 89.0146 7.73831 91.2527C7.73831 93.4907 9.55897 95.305 11.8049 95.305H20.8527C23.0986 95.305 24.9192 93.4907 24.9192 91.2527C24.9192 89.0146 23.0986 87.2003 20.8527 87.2003Z" fill="#0F9F7C"/>
<path d="M20.8527 104.328H11.8049C9.55897 104.328 7.73831 106.142 7.73831 108.38C7.73831 110.618 9.55897 112.433 11.8049 112.433H20.8527C23.0986 112.433 24.9192 110.618 24.9192 108.38C24.9192 106.142 23.0986 104.328 20.8527 104.328Z" fill="#A7A9AF"/>
<path d="M63.9638 47.131C74.8512 47.131 83.6771 38.3324 83.6771 27.4787C83.6771 16.625 74.8512 7.82639 63.9638 7.82639C53.0765 7.82639 44.2506 16.625 44.2506 27.4787C44.2506 38.3324 53.0765 47.131 63.9638 47.131Z" fill="#6695F2"/>
<path d="M68.974 19.8091C68.974 17.2079 66.8588 15.0992 64.2495 15.0992C61.6402 15.0992 59.525 17.2079 59.525 19.8091V22.0201C59.525 24.6213 61.6402 26.73 64.2495 26.73C66.8588 26.73 68.974 24.6213 68.974 22.0201V19.8091Z" fill="#E8F0F9"/>
<path d="M77.1488 42.0819V40.4565C77.1488 38.5437 76.3866 36.7094 75.0299 35.3569C73.6732 34.0043 71.8331 33.2445 69.9144 33.2445H58.3599C56.4412 33.2445 54.6011 34.0043 53.2444 35.3569C51.8877 36.7094 51.1255 38.5437 51.1255 40.4565V42.4339C51.1255 42.4339 56.2608 47.3198 63.9638 47.131C72.4468 46.9198 77.1488 42.0819 77.1488 42.0819Z" fill="#E8F0F9"/>
<path d="M87.5126 53.7255H40.4568C39.4394 53.7255 38.6145 54.5478 38.6145 55.5621C38.6145 56.5764 39.4394 57.3987 40.4568 57.3987H87.5126C88.53 57.3987 89.3549 56.5764 89.3549 55.5621C89.3549 54.5478 88.53 53.7255 87.5126 53.7255Z" fill="white"/>
<path d="M87.5126 62.5725H40.4568C39.4394 62.5725 38.6145 63.3948 38.6145 64.4091C38.6145 65.4235 39.4394 66.2457 40.4568 66.2457H87.5126C88.53 66.2457 89.3549 65.4235 89.3549 64.4091C89.3549 63.3948 88.53 62.5725 87.5126 62.5725Z" fill="white"/>
<path d="M87.5126 71.4196H40.4568C39.4394 71.4196 38.6145 72.2419 38.6145 73.2562C38.6145 74.2705 39.4394 75.0928 40.4568 75.0928H87.5126C88.53 75.0928 89.3549 74.2705 89.3549 73.2562C89.3549 72.2419 88.53 71.4196 87.5126 71.4196Z" fill="white"/>
<path d="M87.1788 80.2666H52.5152C51.4978 80.2666 50.6729 81.0889 50.6729 82.1032C50.6729 83.1176 51.4978 83.9398 52.5152 83.9398H87.1788C88.1962 83.9398 89.0211 83.1176 89.0211 82.1032C89.0211 81.0889 88.1962 80.2666 87.1788 80.2666Z" fill="white"/>
<path d="M88.8542 101.468H54.1906C53.1732 101.468 52.3483 102.29 52.3483 103.304C52.3483 104.319 53.1732 105.141 54.1906 105.141H88.8542C89.8716 105.141 90.6965 104.319 90.6965 103.304C90.6965 102.29 89.8716 101.468 88.8542 101.468Z" fill="white"/>
<path d="M88.851 110.148H60.552C59.5346 110.148 58.7097 110.971 58.7097 111.985C58.7097 112.999 59.5346 113.821 60.552 113.821H88.851C89.8684 113.821 90.6933 112.999 90.6933 111.985C90.6933 110.971 89.8684 110.148 88.851 110.148Z" fill="white"/>
<path d="M89.9422 120C106.543 120 120 106.584 120 90.0352C120 73.4861 106.543 60.0704 89.9422 60.0704C73.3418 60.0704 59.8845 73.4861 59.8845 90.0352C59.8845 106.584 73.3418 120 89.9422 120Z" fill="#0F9F7C"/>
<path d="M84.8807 102.44C84.612 102.441 84.3457 102.389 84.0973 102.287C83.8489 102.185 83.6232 102.035 83.4332 101.845L74.7352 93.174C74.5454 92.985 74.3948 92.7606 74.2921 92.5136C74.1893 92.2665 74.1365 92.0016 74.1365 91.7342C74.1365 91.4667 74.1893 91.202 74.2921 90.9549C74.3948 90.7078 74.5454 90.4833 74.7352 90.2943C75.1185 89.9129 75.6379 89.6988 76.1795 89.6988C76.7211 89.6988 77.2405 89.9129 77.6238 90.2943L84.8775 97.5224L105.419 77.0446C105.803 76.664 106.322 76.4503 106.863 76.4503C107.404 76.4503 107.924 76.664 108.307 77.0446C108.689 77.4271 108.904 77.9448 108.904 78.4844C108.904 79.0241 108.689 79.5417 108.307 79.9243L86.3058 101.858C85.9256 102.231 85.4139 102.44 84.8807 102.44Z" fill="white"/>
</svg>
